<?xml version="1.0" standalone="no"?>
<!DOCTYPE svg PUBLIC "-//W3C//DTD SVG 20010904//EN"
 "http://www.w3.org/TR/2001/REC-SVG-20010904/DTD/svg10.dtd">
<svg version="1.0" xmlns="http://www.w3.org/2000/svg"
 width="150.000000pt" height="150.000000pt" viewBox="0 0 150.000000 150.000000"
 preserveAspectRatio="xMidYMid meet">
<metadata>
Created by potrace 1.10, written by Peter Selinger 2001-2011
</metadata>
<g transform="translate(0.000000,150.000000) scale(0.100000,-0.100000)"
fill="#ffffff" stroke="none">
<path d="M716 1437 c-17 -28 -159 -276 -318 -551 -158 -274 -288 -502 -288
-506 0 -10 623 -370 640 -370 23 0 641 363 638 374 -5 18 -632 1105 -638 1106
-3 0 -18 -24 -34 -53z m238 -713 c109 -190 194 -349 190 -354 -5 -4 -96 -58
-202 -119 l-193 -111 -192 111 c-106 62 -196 115 -201 120 -8 7 382 698 394
698 3 0 94 -155 204 -345z"/>
</g>
</svg>
